<?xml version="1.0" encoding="UTF-8" standalone="no"?>
<svg
   xmlns:dc="http://purl.org/dc/elements/1.1/"
   xmlns:cc="http://creativecommons.org/ns#"
   xmlns:rdf="http://www.w3.org/1999/02/22-rdf-syntax-ns#"
   xmlns:svg="http://www.w3.org/2000/svg"
   xmlns="http://www.w3.org/2000/svg"
   xmlns:sodipodi="http://sodipodi.sourceforge.net/DTD/sodipodi-0.dtd"
   xmlns:inkscape="http://www.inkscape.org/namespaces/inkscape"
   height="100px"
   width="100px"
   fill="#000000"
   version="1.1"
   x="0px"
   y="0px"
   viewBox="0 0 100 100"
   enable-background="new 0 0 100 100"
   xml:space="preserve"
   id="svg4487"
   sodipodi:docname="eraser.svg"
   inkscape:version="0.92.1 r15371"><metadata
     id="metadata4493"><rdf:RDF><cc:Work
         rdf:about=""><dc:format>image/svg+xml</dc:format><dc:type
           rdf:resource="http://purl.org/dc/dcmitype/StillImage" /><dc:title></dc:title></cc:Work></rdf:RDF></metadata><defs
     id="defs4491" /><sodipodi:namedview
     pagecolor="#ffffff"
     bordercolor="#666666"
     borderopacity="1"
     objecttolerance="10"
     gridtolerance="10"
     guidetolerance="10"
     inkscape:pageopacity="0"
     inkscape:pageshadow="2"
     inkscape:window-width="1600"
     inkscape:window-height="837"
     id="namedview4489"
     showgrid="false"
     inkscape:zoom="4.72"
     inkscape:cx="43.750646"
     inkscape:cy="36.442527"
     inkscape:window-x="-8"
     inkscape:window-y="166"
     inkscape:window-maximized="1"
     inkscape:current-layer="svg4487" /><path
     d="M 45.552297,90.901907 97.267,39.498 c 3.645,-3.645 3.645,-9.575 0,-13.22 L 79.417,8.429 C 77.997,7.009 76.231,6.18 74.389,5.867 74.392,5.868 66.222,6.298 58.332,7.195 55.907,7.469 53.883,8.843 52.472,10.253 L 2.733,59.995 c -3.645,3.645 -3.645,9.572 0,13.217 l 17.849,17.85 c 1.753,1.756 4.097,2.724 6.587,2.724 0.194,0 12.049,-0.234 12.172,-0.24 0.598,-0.056 2.033,-0.219 2.033,-0.219 0.867915,-0.0681 2.691601,-0.757694 4.178297,-2.425093 z M 43.279,88.2 c -2.187,2.184 -5.743,2.184 -7.933,0 L 17.497,70.353 c -2.188,-2.191 -2.188,-5.749 0,-7.934 L 42.921,36.996 68.625,62.85 Z M 65.267,9.865 70.313,9.452 42.844,36.922 38.636,36.497 Z M 5.378,70.572 c -2.189,-2.188 -2.189,-5.746 0,-7.937 l 26.853,-26.853 5.971,0.641 -23.35,23.35 c -3.645,3.645 -3.645,9.579 0,13.22 l 16.966,16.966 c -0.271,0.006 -0.515,0.009 -0.776,0.015 H 26.445 C 25.228,89.817 24.1,89.293 23.225,88.415 Z"
     id="path4485"
     inkscape:connector-curvature="0"
     sodipodi:nodetypes="ccccccccccscccccccccccccccccccscccccc"
     style="fill:#f77754;fill-opacity:1" /></svg>